# xmcd
# 
# Track frame offsets:
#     150
#     52733
#     70290
#     98288
#     117515
#     139870
#     165428
# 
# Disc length: 2473
# 
# Revision: 10
# Processed by: cddbd v1.5.2PL0 Copyright (c) Steve Scherf et al.
# Submitted via: BonkEnc v1.0.15
# 
DISCID=5209a707
DTITLE=Jean Michel Jarre - Oxygene 7-13
DYEAR=1997
DGENRE=Electronic
TTITLE0=Oxygene 7
TTITLE1=Oxygene 8
TTITLE2=Oxygene 9
TTITLE3=Oxygene 10
TTITLE4=Oxygene 11
TTITLE5=Oxygene 12
TTITLE6=Oxygene 13
EXTD=
EXTT0=
EXTT1=
EXTT2=
EXTT3=
EXTT4=
EXTT5=
EXTT6=
PLAYORDER=
